<?xml version="1.0" standalone="no"?><!DOCTYPE svg PUBLIC "-//W3C//DTD SVG 1.1//EN" "http://www.w3.org/Graphics/SVG/1.1/DTD/svg11.dtd"><svg t="1693485134708" class="icon" viewBox="0 0 1024 1024" version="1.1" xmlns="http://www.w3.org/2000/svg" p-id="5491" xmlns:xlink="http://www.w3.org/1999/xlink" width="48" height="48"><path d="M891.578182 73.076364H814.545455a36.538182 36.538182 0 0 0-31.65091 17.454545 32.581818 32.581818 0 0 0 0 34.909091 36.538182 36.538182 0 0 0 31.65091 17.454545h77.032727a34.443636 34.443636 0 0 1 23.272727 9.541819 32.116364 32.116364 0 0 1 10.24 23.272727v122.181818H96.581818V175.476364a33.512727 33.512727 0 0 1 34.210909-32.581819H209.454545a35.607273 35.607273 0 0 0 36.538182-34.90909A35.607273 35.607273 0 0 0 209.454545 73.076364H131.490909A105.890909 105.890909 0 0 0 23.272727 175.476364v723.083636A105.658182 105.658182 0 0 0 131.723636 1000.727273h760.087273A105.890909 105.890909 0 0 0 1000.727273 899.490909V176.407273a105.425455 105.425455 0 0 0-108.450909-102.4z m0 858.530909H131.490909a34.676364 34.676364 0 0 1-24.436364-9.076364 30.952727 30.952727 0 0 1-10.472727-23.272727V367.709091h829.44v531.781818A33.512727 33.512727 0 0 1 891.578182 930.909091z m0 0" p-id="5492"></path><path d="M431.709091 142.894545h160.349091A35.84 35.84 0 0 0 628.363636 107.985455a35.84 35.84 0 0 0-36.770909-34.909091h-159.883636A35.84 35.84 0 0 0 395.636364 107.985455a35.84 35.84 0 0 0 36.770909 34.90909z m-111.476364 49.803637a40.029091 40.029091 0 0 0 37.003637-42.589091V65.629091A39.796364 39.796364 0 0 0 320.232727 23.272727a39.796364 39.796364 0 0 0-37.236363 42.356364v84.48a40.029091 40.029091 0 0 0 37.236363 42.589091z m383.069091 0a40.029091 40.029091 0 0 0 37.236364-42.589091V65.629091a37.236364 37.236364 0 1 0-74.007273 0v84.48a40.029091 40.029091 0 0 0 36.770909 42.589091z m67.956364 309.76H251.810909a35.141818 35.141818 0 1 0 0 69.818182h519.447273a36.770909 36.770909 0 0 0 31.650909-17.687273 32.581818 32.581818 0 0 0 0-34.909091 37.236364 37.236364 0 0 0-31.650909-17.454545z m0 212.014545H251.810909a37.236364 37.236364 0 0 0-31.883636 17.454546 33.978182 33.978182 0 0 0 0 35.141818 37.236364 37.236364 0 0 0 31.883636 17.454545h519.447273A37.236364 37.236364 0 0 0 802.909091 768a33.047273 33.047273 0 0 0 0-35.141818 37.236364 37.236364 0 0 0-31.650909-17.454546z m0 0" p-id="5493"></path></svg>