<svg xmlns="http://www.w3.org/2000/svg" fill="none" viewBox="0 0 48 48"><path stroke-linejoin="round" stroke-width="3" stroke="#d4d4d8" d="M39 6H9a3 3 0 0 0-3 3v30a3 3 0 0 0 3 3h30a3 3 0 0 0 3-3V9a3 3 0 0 0-3-3Z" data-follow-stroke="#d4d4d8"/><path stroke-linejoin="round" stroke-linecap="round" stroke-width="3" stroke="#d4d4d8" d="M24 28.625v-4a6 6 0 1 0-6-6" data-follow-stroke="#d4d4d8"/><path fill="#d4d4d8" d="M24 37.625a2.5 2.5 0 1 0 0-5 2.5 2.5 0 0 0 0 5Z" clip-rule="evenodd" fill-rule="evenodd" data-follow-fill="#d4d4d8"/></svg>