<?xml version="1.0" standalone="no"?><!DOCTYPE svg PUBLIC "-//W3C//DTD SVG 1.1//EN" "http://www.w3.org/Graphics/SVG/1.1/DTD/svg11.dtd"><svg t="1693485327687" class="icon" viewBox="0 0 1024 1024" version="1.1" xmlns="http://www.w3.org/2000/svg" p-id="6027" id="mx_n_1693485327689" xmlns:xlink="http://www.w3.org/1999/xlink" width="48" height="48"><path d="M216.294773 74.145673a31.808055 31.808055 0 0 1 5.703513 62.88489l-5.703513 0.584975H141.637247a41.67952 41.67952 0 0 0-40.948301 35.31791l-0.511854 6.800342v116.044559h823.572694V179.73379c0-22.887175-11.626392-38.389032-21.278492-41.533276l-3.509854-0.584976h-54.329621a31.734933 31.734933 0 0 1-5.703513-62.88489l5.703513-0.584975h54.329621c45.847472 0 83.651528 41.972008 87.892602 95.424164l0.438731 10.237075v738.531848c0 54.841474-41.972008 100.030848-95.497286 105.149386l-10.237075 0.511854H142.441588c-54.841474 0-100.030848-41.972008-105.149386-95.424165l-0.511854-10.237075v-738.531848c0-54.841474 41.67952-100.030848 94.839189-105.149386l10.090831-0.511853h74.657527z m707.455013 285.02942H100.177092v559.236789c0 20.912882 15.355613 38.31591 35.391031 41.606398l6.800343 0.511854h739.263068c20.912882 0 38.31591-15.355613 41.606398-35.317909l0.511854-6.800343V359.175093z m-114.508998 380.965438a31.808055 31.808055 0 0 1 5.703514 62.958012l-5.703514 0.511854H217.245358a31.734933 31.734933 0 0 1-5.703513-62.88489l5.703513-0.584976h591.99543z m0-221.559554a31.734933 31.734933 0 0 1 5.703514 62.88489l-5.703514 0.584976H217.245358a31.808055 31.808055 0 0 1-5.703513-62.958012l5.703513-0.511854h591.99543zM733.77892 0.292488c15.574979 0 28.517566 11.260783 31.223079 26.031419l0.511854 5.703514v110.779777a31.808055 31.808055 0 0 1-62.958012 5.703513l-0.511854-5.703513V32.027421c0-17.549272 14.185661-31.734933 31.734933-31.734933z m-406.558126 0c15.501857 0 28.517566 11.260783 31.223079 26.031419l0.511854 5.703514v110.779777a31.808055 31.808055 0 0 1-63.031134 5.703513l-0.511854-5.703513V32.027421c0-17.549272 14.258783-31.734933 31.808055-31.734933z m295.632105 73.853185a31.808055 31.808055 0 0 1 0 63.469865H438.146815a31.808055 31.808055 0 0 1 0-63.469865z" fill="#2c2c2c" p-id="6028"></path></svg>